<svg width="561" height="624" viewBox="0 0 561 624" fill="none" xmlns="http://www.w3.org/2000/svg">
<path d="M463.885 233.042L463.749 232.669C463.162 231.262 461.507 230.596 459.997 231.145L356.063 271.211C354.575 271.823 353.824 273.435 354.345 274.866L354.481 275.239C355.068 276.646 356.723 277.312 358.233 276.763L462.101 236.721C463.677 236.148 464.429 234.535 463.885 233.042ZM82.9566 620.881L82.9497 621.278C82.993 622.802 84.2995 624.016 85.9063 624.045L197.302 623.869C198.91 623.831 200.19 622.595 200.216 621.072L200.223 620.675C200.18 619.151 198.873 617.937 197.267 617.909L85.9405 618.085C84.2638 618.056 82.9844 619.292 82.9566 620.881Z" fill="#A339FF"/>
<path d="M84.757 618.3C85.1657 618.105 85.6125 618.041 86.6061 618.041H197.227L205.196 566.173L156.056 568.335L133.189 583.878C132.121 584.604 131.1 585.395 130.13 586.248C126.977 589.021 124.461 591.029 122.585 592.271C114.811 597.367 110.771 597.296 98.9478 602.851C95.7421 604.318 92.6655 605.986 89.6516 607.854C86.6377 609.722 85.6073 611.823 84.757 614.986C84.6153 615.514 84.6061 616.043 84.5318 616.505C84.5168 617.359 84.6125 617.886 84.757 618.3ZM463.47 235.922C463.158 236.251 462.758 236.518 462.284 236.691L358.415 276.733C357.934 276.908 357.439 276.959 356.967 276.903L377.72 316.71L418.919 300.902L430.213 285.841C431.193 284.533 432.07 283.15 432.833 281.704C434.681 278.204 436.232 275.575 437.487 273.816C442.918 266.274 446.715 264.893 455.761 255.472C458.228 252.954 460.502 250.295 462.646 247.471C464.79 244.648 464.999 242.317 464.658 239.059C464.602 238.516 464.42 238.019 464.324 237.56C464.033 236.761 463.752 236.257 463.47 235.922Z" fill="#474961"/>
<path d="M255.896 428.584C260.648 434.777 266.392 440.62 273.374 446.236C301.072 468.512 350.197 427.855 420.75 324.263C426.102 316.404 424.068 305.696 416.205 300.346C416.139 300.301 416.073 300.257 416.007 300.213L360.293 263.421C352.916 258.55 343.047 260.053 337.456 266.9L322.098 285.711C310.962 224.498 288.015 199.723 253.256 211.387C252.587 211.611 251.931 211.823 251.288 212.022C242.759 211.922 232.591 214.687 220.784 220.316C207.86 236.879 196.862 261.463 187.791 294.067C179.037 325.53 161.787 412.353 136.04 554.537C134.737 561.733 139.518 568.623 146.717 569.926C147.521 570.071 148.337 570.142 149.155 570.137L208.581 569.787C214.497 569.753 219.674 565.801 221.264 560.104C235.078 510.612 246.623 466.772 255.896 428.584Z" fill="#FFCB3D"/>
<path opacity="0.176986" d="M255.661 428.277C231.101 395.993 233.278 354.193 227.412 285.711C220.544 205.547 222.187 221.087 251.367 211.998C242.76 211.809 232.465 214.572 220.482 220.285C207.558 236.848 196.561 261.432 187.489 294.036C178.735 325.499 161.485 412.322 135.739 554.506C134.436 561.702 139.216 568.592 146.416 569.895C147.22 570.04 148.036 570.111 148.853 570.106L208.279 569.756C214.196 569.722 219.372 565.77 220.962 560.073C234.81 510.462 246.377 466.53 255.661 428.277Z" fill="#8C2A00"/>
<path d="M321.731 285.653C326.505 309.71 328.864 328.737 328.81 342.719C328.807 343.267 329.251 343.714 329.799 343.716C330.348 343.718 330.795 343.275 330.797 342.726C330.851 328.591 328.478 309.442 323.68 285.266C323.573 284.728 323.051 284.379 322.512 284.485C321.974 284.592 321.624 285.115 321.731 285.653Z" fill="#482D1F"/>
<path d="M223.566 200.019C221.725 198.754 182.431 182.369 180.73 192.499C180.73 192.499 184.184 198.407 194.664 202.413L214.113 206.444L223.566 200.019Z" fill="#482D1F"/>
<path d="M288.445 149.739L287.644 172.68C287.605 173.378 287.564 174.012 287.588 174.707C287.636 177.87 287.231 182.567 284.638 186.075C281.021 191.01 275.649 198.159 252.19 199.231C226.965 200.365 227.204 200.915 223.121 196.121C220.291 192.866 215.139 192.866 212.74 178.269C212.715 177.574 212.63 176.944 212.543 176.251L209.223 150.525C208.521 150.616 207.807 150.689 207.081 150.745C193.353 151.811 186.541 130.742 183.404 118.073C180.267 105.404 176.573 80.8603 199.17 86.9234C211.857 90.3277 221.235 91.8086 226.087 99.2532C231.555 96.3968 237.946 94.598 244.987 94.3063L248.583 94.1808C260.757 93.683 271.371 94.5939 278.771 98.4608C283.228 96.2666 288.09 95.5843 292.655 97.2222C299.987 99.8525 310.352 109.497 323.752 126.157C325.127 127.867 324.855 130.368 323.144 131.742C322.937 131.909 322.714 132.054 322.477 132.176L288.445 149.739Z" fill="#A339FF"/>
<path d="M266.367 77.1526C269.934 75.5147 273.492 73.7144 275.041 72.4215C276.844 70.9408 282.324 67.6902 285.552 60.7633C286.564 58.436 290.111 50.6363 286.888 42.8938C285.745 40.1552 284.036 38.4257 283.272 37.7247C279.227 33.8102 275.141 33.879 265.763 30.778C265.018 30.4953 263.744 30.1303 262.189 29.5468C259.315 28.5164 257.35 27.6778 256.795 27.4499C252.316 25.6255 242.119 23.6207 235.26 28.6483C235.073 28.7739 234.887 28.9039 234.702 29.0386C233.864 29.5562 233.118 30.2376 232.316 31.1099C230.431 33.118 229.082 35.4176 228.415 37.9816L225.402 49.4469C225.137 50.6108 224.872 51.7746 224.798 52.9932C223.88 61.4775 224.555 68.9721 226.242 74.1394C227.476 78.0057 229.348 80.6085 231.586 81.4565C232.186 81.7662 235.588 82.879 239.891 83.0104C240.272 82.9943 240.143 83.0903 244.589 82.741L243.409 93.3496C232.936 93.9612 227.48 96.6054 225.627 98.7289C223.913 100.692 224.823 104.076 228.357 108.88C229.629 110.608 231.817 111.399 233.901 110.883C260.375 104.328 274.789 100.565 277.143 99.593C280.819 98.0754 282.182 97.1831 270.338 95.2921C267.832 94.8919 265.448 94.5603 263.183 94.2906L266.367 77.1526ZM186.136 88.3097L175.193 85.2305C166.363 77.7435 152.344 63.408 133.135 42.2241C128.103 33.0027 124.107 24.9072 121.147 17.9376C118.019 10.5708 106.085 4.82881 85.3456 0.711548C83.429 1.95798 83.3124 4.09276 84.9958 7.11589C86.6792 10.139 93.9133 16.7234 106.698 26.8689C99.8055 21.9013 95.9204 20.7939 95.0431 23.5468C94.1179 26.4501 101.372 34.1213 103.183 38.7104C103.33 39.0832 104.584 43.6066 106.943 52.2806L106.941 52.2817C106.944 52.2904 106.947 52.2992 106.951 52.3079C106.963 52.3542 106.976 52.4007 106.989 52.4473L107.003 52.4428C119.965 85.9605 131.334 107.417 141.108 116.814C150.317 125.667 175.555 134.163 192.201 141.156C187.967 134.26 185.26 125.148 183.592 118.411C181.316 109.22 178.747 93.7801 186.136 88.3097ZM207.855 151.034C207.828 151.037 207.801 151.039 207.774 151.042C207.775 151.297 207.719 151.547 207.604 151.791L207.855 151.034ZM217.259 221.817C272.062 215.669 305.018 208.69 316.129 200.88C326.442 193.631 327.405 171.274 319.018 133.807L280.651 153.607L282.004 171.955C272.931 179.219 252.983 187.141 222.159 195.722C186.867 192.976 167.819 192.669 165.015 194.802C160.81 198.001 166.214 215.979 172.541 221.817C202.025 221.959 216.931 221.959 217.259 221.817Z" fill="#F2A98A"/>
<path d="M243.595 91.679L255.151 81.0855L243.759 82.809L243.595 91.679Z" fill="#482D1F"/>
<path d="M262.124 69.7211C263.418 72.0323 264.79 74.4997 266.24 77.1232C277.879 73.419 285.129 65.3143 287.99 52.8092C288.415 53.0485 288.859 53.2803 289.32 53.5044C294.677 56.1078 301.181 56.6871 308.833 55.2421L308.833 55.242C317.449 53.6148 323.114 45.314 321.486 36.7017C321.012 34.1905 319.937 31.831 318.355 29.8239C311.152 20.6903 298.87 22.8301 281.51 36.2433C276.709 33.3719 270.055 31.3491 261.395 28.9981C243.197 21.913 232.204 24.9075 228.415 37.9816C238.526 40.1422 244.647 42.3005 246.777 44.4564C248.178 45.8745 251.464 51.0708 256.636 60.0453L261.659 55.2815C261.659 55.2815 263.421 53.7836 266.112 53.2537C266.349 53.2217 268.034 52.9386 269.7 53.6033C272.674 54.7584 274.547 58.4709 274.196 61.9093C273.906 65.5247 271.414 68.2142 268.612 69.4263C265.809 70.6384 263.167 70.013 262.306 69.8142L262.124 69.7211ZM224.569 47.2022C225.742 47.6993 227.751 48.4046 229.711 48.2106C232.763 48.016 230.255 45.7534 227.588 45.2252C226.287 44.9691 225.162 45.3712 224.456 45.741C223.894 46.0786 223.958 46.9136 224.569 47.2022ZM237.038 50.3096C238.275 50.8227 240.284 51.528 242.308 51.35C245.344 51.2197 242.853 48.8928 240.186 48.3646C238.82 48.0925 237.696 48.4946 236.989 48.8644C236.363 49.186 236.427 50.0209 237.038 50.3096Z" fill="#DE6903"/>
<path opacity="0.2" d="M186.318 88.3097C178.929 93.7802 181.498 109.22 183.774 118.411C185.442 125.148 188.149 134.26 192.383 141.156C175.737 134.163 150.5 125.667 141.29 116.814C131.516 107.418 120.148 85.9605 107.185 52.4428L107.171 52.4473C107.158 52.4007 107.146 52.3542 107.133 52.3079C107.13 52.2992 107.126 52.2904 107.123 52.2817L107.126 52.2807C104.766 43.6066 103.513 39.0832 103.365 38.7104C101.554 34.1213 94.3 26.4501 95.2252 23.5468C96.1025 20.7939 99.9876 21.9013 106.88 26.8689C94.0954 16.7234 86.8613 10.139 85.1779 7.1159C83.4945 4.09278 83.6111 1.958 85.5277 0.711562C106.267 4.82882 118.201 10.5708 121.329 17.9376C124.289 24.9072 128.285 33.0027 133.317 42.2241C152.526 63.408 166.545 77.7435 175.375 85.2305L186.318 88.3097ZM208.037 151.034L207.786 151.791C207.902 151.547 207.957 151.297 207.956 151.042C207.983 151.039 208.01 151.037 208.037 151.034Z" fill="#8C2A00"/>
<path opacity="0.176986" d="M226.294 99.4416C216.635 104.461 209.844 112.777 207.419 121.923C206.524 125.245 206.458 128.791 206.956 132.191L209.334 150.613C208.641 150.702 207.936 150.774 207.22 150.829C193.492 151.895 186.68 130.826 183.543 118.157C180.406 105.488 176.712 80.9442 199.309 87.0073C212.055 90.4275 221.461 91.9063 226.294 99.4416Z" fill="#444444"/>
<path d="M228.155 53.3502C228.011 54.4743 227.756 56.3212 226.921 56.9319C225.797 57.8801 224.541 54.4284 225.504 52.4847C225.921 51.6334 226.435 51.4885 226.949 51.6167C227.721 51.8089 228.219 52.5472 228.155 53.3502ZM239.692 55.8158C239.612 56.956 239.292 58.7868 238.457 59.3976C237.333 60.3457 236.078 56.894 237.041 54.9504C237.458 54.099 237.972 53.9542 238.486 54.0823C239.257 54.2745 239.756 55.0129 239.692 55.8158Z" fill="#482D1F"/>
<path d="M233.242 67.9919C233.724 67.9756 234.912 67.8624 235.282 67.2038C235.314 67.0753 235.426 66.8986 235.394 66.7541C235.233 66.3046 234.349 66.2891 233.16 66.1292C231.055 65.8094 229.432 65.2002 229.432 65.2002C229.432 65.2002 229.626 66.6132 229.867 67.0145C230.254 68.2026 232.487 68.0085 233.242 67.9919Z" fill="#482D1F"/>
<path fill-rule="evenodd" clip-rule="evenodd" d="M232.968 50.3874C233.325 50.4638 233.553 50.8156 233.477 51.1732L232.66 54.9955C232.653 55.0269 232.644 55.0578 232.633 55.088L230.164 61.7239C230.157 61.7726 230.164 61.8257 230.181 61.8689C230.194 61.8994 230.207 61.9141 230.216 61.9211C230.989 62.176 231.733 62.3618 233.19 62.7249C233.545 62.8134 233.761 63.1727 233.673 63.5275C233.584 63.8823 233.225 64.0982 232.87 64.0098L232.844 64.0033C231.389 63.6409 230.595 63.443 229.752 63.1625C229.733 63.1563 229.715 63.1494 229.697 63.1416C228.961 62.8224 228.729 61.9991 228.884 61.3787C228.89 61.3548 228.897 61.3313 228.906 61.3081L231.375 54.6717L232.182 50.8965C232.258 50.5389 232.61 50.311 232.968 50.3874Z" fill="#482D1F"/>
<path fill-rule="evenodd" clip-rule="evenodd" d="M263.504 116.073C262.977 115.922 262.427 116.228 262.277 116.756C259.95 124.921 261.433 137.85 266.479 155.36C266.569 155.673 266.689 155.975 266.838 156.264C268.097 158.701 271.094 159.656 273.532 158.398L280.904 154.594C281.392 154.342 281.583 153.743 281.331 153.256C281.079 152.768 280.48 152.577 279.993 152.829L272.62 156.633C271.157 157.388 269.359 156.815 268.604 155.353C268.515 155.18 268.442 154.998 268.388 154.811C263.347 137.317 262.029 124.875 264.188 117.3C264.338 116.772 264.032 116.223 263.504 116.073Z" fill="#482D1F"/>
<path d="M188.726 205.057C189.274 205.077 189.703 205.537 189.684 206.085C189.664 206.633 189.204 207.062 188.655 207.043C185.211 206.921 182.537 206.74 176.587 206.274C170.665 205.81 168.011 205.631 164.604 205.51C164.056 205.491 163.627 205.031 163.647 204.482C163.666 203.934 164.126 203.506 164.675 203.525C168.119 203.647 170.793 203.827 176.743 204.294C182.665 204.758 185.319 204.937 188.726 205.057ZM193.786 214.092C194.332 214.146 194.732 214.631 194.678 215.177C194.625 215.723 194.139 216.122 193.593 216.069C189.852 215.704 186.945 215.486 180.469 215.053C173.972 214.618 171.052 214.399 167.284 214.031C166.738 213.978 166.339 213.492 166.392 212.946C166.445 212.4 166.931 212.001 167.477 212.054C171.219 212.42 174.125 212.637 180.601 213.071C187.098 213.506 190.018 213.724 193.786 214.092Z" fill="#482D1F"/>
</svg>
