<svg width="1060" height="738" viewBox="0 0 1060 738" fill="none" xmlns="http://www.w3.org/2000/svg">
<path d="M388.546 147.418C391.092 149.694 397.238 154.275 401.457 154.393C406.73 154.539 429.893 162.236 433.504 167.563C436.274 171.047 440.257 179.727 434.032 186.577C431.774 191.243 422.961 198.823 405.773 191.817C405.921 193.289 406.877 196.559 409.518 197.868C412.819 199.505 421.502 203.891 424.106 203.783C426.709 203.675 456.595 211.25 459.791 220.401C462.838 224.708 467.362 234.961 461.084 241.522C458.387 246.519 448.414 254.439 430.087 246.145C424.75 243.637 413.539 237.746 411.391 234.247C410.38 234.184 408.81 234.875 410.614 238.138C412.869 242.217 431.874 257.806 437.121 259.831C442.369 261.856 471.249 274.114 474.471 281.387C476.932 284.553 481.253 292.496 478.85 298.938C475.846 306.99 470.332 313.633 462.227 314.387C455.344 315.663 439.493 316.279 431.161 308.53C431.13 309.035 431.559 311.079 433.524 315.212C435.981 320.378 445.65 352.313 429.63 360.904C423.275 365.705 407.244 371.951 393.961 358.524C388.736 353.247 378.308 339.99 378.402 329.18C378.478 328.916 378.281 328.528 376.886 329.086C375.141 329.785 361.053 334.645 353.188 328.609C350.58 327.343 344.95 323.391 343.296 317.701C341.227 310.59 344.754 301.316 350.335 295.035C355.916 288.754 366.032 278.634 367.212 276.916C368.393 275.198 383.525 257.776 385.966 248.705C386.913 246.405 388.543 241.181 387.48 238.68C386.451 239.87 384.172 242.667 383.281 244.331C382.168 246.411 370.953 262.731 360.943 265.336C356.631 267.01 346.857 268.998 342.25 263.556C339.056 261.15 333.155 254.524 335.107 247.267C335.666 243.541 338.932 234.341 347.529 227.35C352.213 223.541 352.902 222.862 351.99 223.461C350.419 224.608 348.966 225.671 347.757 226.559C349.353 225.353 351.229 223.961 351.99 223.461C358.71 218.556 367.606 212.121 368.929 211.39C370.968 210.263 376.052 203.324 376.427 197.258C373.94 199.343 368.677 203.567 367.518 203.782C366.069 204.051 352.114 209.636 347.805 202.565C343.694 198.581 337.158 188.8 343.909 181.552C346.489 177.951 353.866 169.363 362.732 163.821C365.867 161.866 372.419 157.453 373.545 155.446C374.954 152.936 374.457 152.278 376.067 150.856C377.677 149.433 383.071 146.184 388.546 147.418Z" fill="#FB5A61"/>
<path d="M401.247 117.152C396.63 94.6667 360.838 69.1419 345.174 59.222C341.053 59.222 328.687 50.1287 289.116 57.5686C257.46 63.5206 234.157 107.444 226.463 128.661C245.424 126.182 289.116 141.888 289.116 142.715C289.116 143.376 277.575 143.541 271.804 143.541C244.105 146.187 219.593 163.932 210.8 172.475C195.631 187.024 185.244 213.256 181.946 224.554C215.581 223.893 235.531 235.301 241.302 241.087C237.18 242.741 201.732 245.221 187.717 246.047C176.505 246.709 171.504 252.936 170.405 255.967C155.896 291.018 166.008 348.829 172.878 373.353C176.835 395.177 194.862 429.291 203.38 443.619C206.678 440.313 229.486 430.117 240.478 425.433C269.331 405.593 265.263 395.833 266.034 389.06C266.872 381.683 266.583 378.589 267.682 376.66C273.453 378.313 275.102 384.926 294.887 379.14C314.672 373.353 318.794 356.82 327.862 343.593C335.117 333.012 335.831 318.242 335.282 312.18C332.809 302.26 317.145 290.687 315.497 289.034C313.848 287.38 309.726 284.074 313.023 284.9C316.321 285.727 332.809 289.86 348.472 286.554C364.135 283.247 376.501 246.874 377.325 224.554C378.15 202.234 357.54 179.914 354.243 176.608C351.605 173.963 352.594 172.199 353.418 171.648C360.563 173.577 376.996 177.93 385.569 179.914C396.286 182.394 402.057 178.261 404.53 171.648C408.525 160.965 407.842 134.575 401.247 117.152Z" fill="#076670"/>
<path d="M236.356 393.521C239.653 394.347 245.259 397.654 241.302 404.267C236.356 412.534 227.287 396.827 236.356 393.521Z" fill="#97EAB8"/>
<path d="M359.189 57.0696C359.189 59.7149 263.011 278.064 214.922 386.907C210.305 392.198 210.8 383.05 211.624 377.814C212.449 367.067 341.052 70.2962 347.647 59.5496C354.243 48.803 359.189 53.763 359.189 57.0696Z" fill="#97EAB8"/>
<path d="M377.325 154.616C374.028 138.744 354.517 137.531 345.174 138.909C342.701 143.869 351.769 145.522 362.486 151.309C371.06 155.938 375.951 155.442 377.325 154.616Z" fill="#97EAB8"/>
<path d="M266.858 114.936C260.263 116.259 262.461 119.345 264.385 120.723C270.155 124.856 289.941 124.029 294.063 123.203C298.184 122.376 299.009 120.723 298.184 116.589C297.36 112.456 275.102 113.283 266.858 114.936Z" fill="#97EAB8"/>
<path d="M320.443 231.495C308.572 226.866 313.298 235.077 317.145 239.762C320.992 243.344 330.995 251.5 340.228 255.468C349.461 259.436 347.922 253.815 345.999 250.508C342.426 246.099 332.314 236.124 320.443 231.495Z" fill="#97EAB8"/>
<path d="M280.048 334.828C270.815 328.214 271.255 335.379 272.629 339.788C272.629 340.614 275.431 345.409 286.643 357.974C297.855 370.539 296.261 360.454 294.062 353.841C293.238 350.259 289.281 341.441 280.048 334.828Z" fill="#97EAB8"/>
<path d="M211.624 311.681C222.176 309.697 216.021 305.343 211.624 303.415C193.488 300.108 187.717 307.548 189.366 309.201C191.015 310.855 198.434 314.161 211.624 311.681Z" fill="#97EAB8"/>
<path d="M227.287 205.042C218.054 207.026 223.44 210.277 227.287 211.655C239.653 215.789 256.141 211.655 254.492 207.522C252.843 203.389 238.829 202.562 227.287 205.042Z" fill="#97EAB8"/>
<path d="M793.325 352.95C797.681 364.028 809.066 369.915 814.214 371.474C815.993 378.234 818.286 390.447 813.226 385.213C808.165 379.979 790.933 372.597 782.95 369.56C755.311 362.154 754.878 387.891 764.183 397.386C771.627 404.982 799.943 404.634 813.17 403.51L806.491 440.5C808.599 442.68 810.948 445.572 803.476 439.692C794.135 432.341 756.626 411.519 749.059 433.728C743.006 451.496 754.093 461.175 762.133 463.329C780.399 468.223 793.602 466.489 800.431 463.113C798.597 474.65 794.439 496.732 792.487 492.762C790.047 487.799 775.95 478.097 755.346 472.576C738.864 468.16 724.586 474.812 725.275 482.292C736.892 519.337 779.429 511.345 783.951 512.557C787.569 513.526 776.16 535.604 770.003 546.521C769.079 543.94 763.453 536.795 748.342 528.868C729.453 518.959 713.439 526.977 712.733 545.179C712.186 559.281 742.276 566.919 759.152 568.928L717.507 643.945L735.572 642.861L771.212 572.159C785.631 592.72 803.929 592.775 807.581 593.215C811.234 593.655 830.204 591.198 822.623 569.238C815.042 547.279 772.21 550.344 777.541 548.541C781.805 547.099 790.627 525.836 794.504 515.385C832.578 540.128 851.262 524.668 857.939 517.84C864.617 511.011 850.089 496.885 837.759 494.659C827.896 492.878 808.493 493.998 800.025 494.781L807.969 465.133C811.675 467.382 823.899 472.417 843.145 474.558C862.392 476.699 867.797 466.98 868.094 461.853C869.117 456.024 866.634 443.581 848.515 440.449C830.395 437.318 817.166 443.54 812.817 447.042L820.915 400.738C849.342 415.249 861.135 405.411 863.478 398.678C865.985 394.682 868.488 384.401 858.445 375.247C848.403 366.093 830.396 374.733 822.649 380.197L820.819 368.935C827.4 367.826 841.237 361.48 843.937 344.968C847.313 324.329 830.641 310.167 814.525 308.003C801.631 306.271 794.596 317.385 792.69 323.158C787.398 331.65 790.908 346.558 793.325 352.95Z" fill="#FDADB1"/>
<path d="M654.558 399.367C652.429 404.352 648.444 424.766 646.968 435.261L654.558 428.964C661.284 423.874 687.026 417.629 699.465 415.11C727.294 411.331 752.594 418.888 757.021 442.818C761.449 466.747 732.354 475.564 720.969 481.861C709.585 488.158 671.635 490.047 661.516 490.047H643.174V529.091C644.439 527.831 650.763 524.557 665.943 521.534C684.918 517.755 726.029 517.126 752.594 525.312C779.158 533.499 779.158 555.539 767.773 570.023C756.389 584.507 728.559 582.618 717.807 582.618H676.695C660.883 587.026 671.635 604.658 671.635 613.474C671.635 622.29 689.978 641.812 692.508 650.628C694.532 657.681 686.604 662.803 682.388 664.482C675.304 667.001 670.139 659.724 665.943 655.666C660.883 652.14 642.942 649.648 634.319 646.499C620.172 647.759 602.273 643.072 596.37 641.812C565.378 635.2 563.059 622.29 565.378 613.474C573.474 597.353 597.002 597.101 607.754 598.99C619.139 598.361 634.319 607.807 634.319 604.658C634.319 601.509 621.037 590.174 614.079 586.396C608.513 583.373 563.269 570.443 541.343 564.355C507.948 557.302 500.021 535.388 500.232 525.312C500.232 487.529 545.138 499.493 559.053 503.272C570.185 506.294 596.159 519.225 607.754 525.312C607.248 515.237 559.053 487.948 535.018 475.564C503.647 456.924 498.756 430.013 500.232 418.888C501.286 411.854 508.201 397.881 527.429 398.261C550.494 396.748 588.149 435.532 596.37 439.039C603.453 442.062 599.321 437.78 596.37 435.261C584.226 424.178 576.552 389.501 574.232 373.548C571.196 352.893 574.001 325.636 583.087 314.983C604.339 292.816 624.6 295.409 634.319 300.499C664.447 313.672 665.311 351.507 665.943 356.545C666.575 361.583 656.687 394.381 654.558 399.367Z" fill="#043A40"/>
<ellipse cx="618.275" cy="362.492" rx="3.16243" ry="3.77837" fill="#97EAB8"/>
<ellipse cx="618.275" cy="335.413" rx="3.16243" ry="5.66756" fill="#97EAB8"/>
<ellipse rx="3.79311" ry="5.51275" transform="matrix(0.943917 0.330183 -0.332763 0.943011 640.767 326.418)" fill="#97EAB8"/>
<ellipse rx="3.79311" ry="5.51275" transform="matrix(0.943917 0.330183 -0.332762 0.943011 648.357 352.57)" fill="#97EAB8"/>
<ellipse rx="3.79311" ry="5.51275" transform="matrix(0.943917 0.330183 -0.332763 0.943011 640.767 379.018)" fill="#97EAB8"/>
<ellipse rx="3.7931" ry="5.51275" transform="matrix(0.943917 0.330184 -0.332762 0.943011 638.237 402.948)" fill="#97EAB8"/>
<ellipse rx="3.7949" ry="5.51011" transform="matrix(0.999492 -0.0318722 0.0321517 0.999483 591.253 373.158)" fill="#97EAB8"/>
<ellipse rx="3.7949" ry="5.51012" transform="matrix(0.999492 -0.0318722 0.0321517 0.999483 587.458 349.228)" fill="#97EAB8"/>
<ellipse rx="3.79422" ry="5.51112" transform="matrix(0.978669 0.205443 -0.207169 0.978305 601.373 317.742)" fill="#97EAB8"/>
<ellipse rx="3.79175" ry="5.51473" transform="matrix(0.899687 0.436535 -0.439629 0.89818 623.763 310.728)" fill="#97EAB8"/>
<ellipse rx="3.79175" ry="5.51474" transform="matrix(0.899687 0.436535 -0.439629 0.89818 615.889 387.992)" fill="#97EAB8"/>
<ellipse cx="621.438" cy="421.057" rx="3.79492" ry="5.66756" fill="#97EAB8"/>
<ellipse rx="3.79175" ry="5.67233" transform="matrix(0.899605 -0.436704 0.439799 0.898096 595.719 408.285)" fill="#97EAB8"/>
<ellipse rx="3.78837" ry="5.04658" transform="matrix(0.778407 -0.627759 0.631081 0.775717 530.168 415.385)" fill="#97EAB8"/>
<ellipse rx="3.9362" ry="5.04658" transform="matrix(0.778408 -0.627759 0.631081 0.775717 514.874 426.813)" fill="#97EAB8"/>
<ellipse rx="3.94102" ry="5.69712" transform="matrix(0.941069 -0.338216 0.340841 0.940121 530.507 442.543)" fill="#97EAB8"/>
<ellipse rx="3.9346" ry="5.70645" transform="matrix(0.716427 -0.697662 0.700786 0.713372 554.887 432.281)" fill="#97EAB8"/>
<ellipse rx="3.94002" ry="5.69858" transform="matrix(0.909802 -0.415043 0.418052 0.908423 548.976 459.985)" fill="#97EAB8"/>
<ellipse rx="3.94" ry="5.6986" transform="matrix(0.909135 -0.416502 0.419517 0.907747 578.076 446.133)" fill="#97EAB8"/>
<ellipse rx="3.94174" ry="5.69607" transform="matrix(0.962989 -0.26954 0.271731 0.962373 578.712 471.052)" fill="#97EAB8"/>
<ellipse rx="4.52017" ry="6.9891" transform="matrix(0.983668 -0.179993 0.181521 0.983387 609.443 449.524)" fill="#97EAB8"/>
<ellipse rx="3.5777" ry="5.43666" transform="matrix(0.962005 0.273031 -0.275247 0.961374 628.906 450.196)" fill="#97EAB8"/>
<ellipse rx="3.57126" ry="5.44651" transform="matrix(0.716767 0.697312 -0.700437 0.713714 669.556 438.139)" fill="#97EAB8"/>
<ellipse rx="3.57126" ry="5.44651" transform="matrix(0.716767 0.697312 -0.700437 0.713714 707.506 438.139)" fill="#97EAB8"/>
<ellipse rx="3.57126" ry="5.44651" transform="matrix(0.716767 0.697312 -0.700437 0.713714 730.275 428.064)" fill="#97EAB8"/>
<ellipse rx="3.57127" ry="5.44651" transform="matrix(0.716767 0.697312 -0.700437 0.713714 735.335 449.475)" fill="#97EAB8"/>
<ellipse rx="3.57127" ry="5.44651" transform="matrix(0.716767 0.697313 -0.700437 0.713714 712.565 464.588)" fill="#97EAB8"/>
<ellipse rx="3.57127" ry="5.44651" transform="matrix(0.716768 0.697312 -0.700438 0.713713 688.531 454.512)" fill="#97EAB8"/>
<ellipse rx="3.57817" ry="5.43597" transform="matrix(0.976866 0.213854 -0.215646 0.976472 660.259 469.322)" fill="#97EAB8"/>
<ellipse rx="3.57816" ry="5.43596" transform="matrix(0.976865 0.213855 -0.215646 0.976472 629.9 476.878)" fill="#97EAB8"/>
<ellipse rx="3.57673" ry="5.43816" transform="matrix(0.929055 -0.369943 0.37274 0.927936 608.395 479.397)" fill="#97EAB8"/>
<ellipse rx="3.57816" ry="5.43598" transform="matrix(0.976865 0.213856 -0.215645 0.976472 614.72 502.067)" fill="#97EAB8"/>
<ellipse rx="3.85514" ry="5.10571" transform="matrix(0.786911 -0.617066 0.6417 0.766955 531.017 508.586)" fill="#97EAB8"/>
<ellipse rx="4.00557" ry="5.10571" transform="matrix(0.786912 -0.617066 0.6417 0.766955 515.283 518.758)" fill="#97EAB8"/>
<ellipse rx="3.98746" ry="5.79729" transform="matrix(0.692701 -0.721225 0.743236 0.669029 522.476 540.478)" fill="#97EAB8"/>
<ellipse rx="3.97036" ry="5.82193" transform="matrix(0.588621 -0.808409 0.825999 0.563672 543.329 533.979)" fill="#97EAB8"/>
<ellipse rx="3.98703" ry="5.79791" transform="matrix(0.690289 -0.723534 0.745454 0.666557 556.27 556.914)" fill="#97EAB8"/>
<ellipse rx="3.96978" ry="5.82276" transform="matrix(0.584744 -0.811218 0.828628 0.559799 556.642 519.186)" fill="#97EAB8"/>
<ellipse rx="3.97179" ry="5.81989" transform="matrix(0.598046 -0.801462 0.819481 0.573107 582.367 547.865)" fill="#97EAB8"/>
<ellipse rx="4.64598" ry="6.99776" transform="matrix(0.984538 -0.17517 0.186507 0.982454 614.936 551.554)" fill="#97EAB8"/>
<ellipse rx="4.47205" ry="5.31765" transform="matrix(0.994124 -0.108251 0.115408 0.993318 636.987 552.684)" fill="#97EAB8"/>
<ellipse rx="4.31644" ry="4.05619" transform="matrix(0.963967 0.266022 -0.28246 0.959279 658.095 548.905)" fill="#97EAB8"/>
<ellipse rx="3.62485" ry="5.52465" transform="matrix(0.726467 0.687201 -0.710377 0.703821 674.411 531.348)" fill="#97EAB8"/>
<ellipse rx="3.57463" ry="5.60027" transform="matrix(0.303159 0.95294 -0.95831 0.28573 708.009 527.568)" fill="#97EAB8"/>
<ellipse rx="3.62485" ry="5.52465" transform="matrix(0.726467 0.687201 -0.710377 0.703821 736.875 530.085)" fill="#97EAB8"/>
<ellipse rx="3.62485" ry="5.52464" transform="matrix(0.726467 0.687201 -0.710377 0.703821 743.145 545.206)" fill="#97EAB8"/>
<ellipse rx="3.56815" ry="5.60987" transform="matrix(0.185294 0.982683 -0.984741 0.174026 719.349 565.986)" fill="#97EAB8"/>
<ellipse rx="3.59011" ry="5.57717" transform="matrix(0.477754 0.878494 -0.890946 0.45411 754.485 564.726)" fill="#97EAB8"/>
<ellipse rx="3.59011" ry="5.57717" transform="matrix(0.477754 0.878493 -0.890946 0.454109 761.49 544.513)" fill="#97EAB8"/>
<ellipse rx="3.56814" ry="5.60987" transform="matrix(0.185295 0.982683 -0.984741 0.174025 692.021 564.726)" fill="#97EAB8"/>
<ellipse rx="3.58175" ry="5.58966" transform="matrix(0.393492 0.919328 -0.928108 0.372312 715.817 546.466)" fill="#97EAB8"/>
<ellipse rx="3.62485" ry="5.52465" transform="matrix(0.726466 0.687202 -0.710376 0.703822 681.983 547.725)" fill="#97EAB8"/>
<ellipse rx="3.61791" ry="5.53523" transform="matrix(0.684544 0.728972 -0.750675 0.660672 664.611 568.838)" fill="#97EAB8"/>
<ellipse rx="3.64447" ry="5.49455" transform="matrix(0.832544 -0.553959 0.578893 0.815403 643.789 578.917)" fill="#97EAB8"/>
<ellipse rx="3.62202" ry="5.52897" transform="matrix(0.709666 -0.704539 0.727159 0.686469 595.041 566.615)" fill="#97EAB8"/>
<ellipse rx="4.85643" ry="5.52897" transform="matrix(0.709665 -0.704539 0.727159 0.686469 583.991 532.185)" fill="#97EAB8"/>
<ellipse rx="3.86544" ry="5.52898" transform="matrix(0.709665 -0.704539 0.727158 0.68647 628.834 530.364)" fill="#97EAB8"/>
<ellipse rx="3.64572" ry="5.49261" transform="matrix(0.838769 -0.544488 0.569393 0.822066 621.749 575.562)" fill="#97EAB8"/>
<ellipse rx="4.42402" ry="5.67193" transform="matrix(0.908466 -0.417958 0.420979 0.90707 650.614 603.745)" fill="#97EAB8"/>
<ellipse rx="4.42677" ry="5.66837" transform="matrix(0.983505 -0.18088 0.182416 0.983221 661.999 625.155)" fill="#97EAB8"/>
<ellipse rx="4.41897" ry="5.67843" transform="matrix(0.751516 -0.659714 0.662967 0.748649 629.788 616.512)" fill="#97EAB8"/>
<ellipse rx="4.41144" ry="5.68812" transform="matrix(0.416224 -0.909262 0.91063 0.413224 644.898 638.377)" fill="#97EAB8"/>
<ellipse rx="4.65625" ry="4.39607" transform="matrix(0.995394 0.095873 -0.0967072 0.995313 604.993 629.647)" fill="#97EAB8"/>
<ellipse rx="6.11085" ry="4.69092" transform="matrix(0.784576 0.620032 -0.623367 0.78193 594.961 611.395)" fill="#97EAB8"/>
<ellipse rx="6.15856" ry="4.72755" transform="matrix(0.784576 0.620033 -0.623366 0.78193 579.882 623.158)" fill="#97EAB8"/>
</svg>
